<svg id="Camada_1" data-name="Camada 1" xmlns="http://www.w3.org/2000/svg" viewBox="0 0 600 550"><defs><style>.cls-1{fill:#e6af50;}</style></defs><polygon class="cls-1" points="292.67 172.23 292.67 230.55 472.96 230.55 472.96 252.49 270.75 252.49 270.75 150.28 472.96 150.28 472.96 172.23 292.67 172.23"/><polygon class="cls-1" points="550 377.72 550 399.63 156.03 399.63 123.61 367.19 123.61 76.7 145.5 76.7 145.5 377.72 550 377.72"/><polygon class="cls-1" points="550 451.42 550 473.3 114.11 473.13 50.23 409.22 50 76.7 71.94 76.7 71.94 391.87 131.49 451.42 550 451.42"/><polygon class="cls-1" points="528.06 171.57 528.06 98.64 219.08 98.64 219.08 304.16 528.06 304.16 528.06 230.55 550 230.55 550 326.04 197.17 326.04 197.17 76.7 550 76.7 550 171.57 528.06 171.57"/></svg>