<svg id="Camada_1" data-name="Camada 1" xmlns="http://www.w3.org/2000/svg" viewBox="0 0 1100 150"><defs><style>.cls-1{fill:#fff;}.cls-2{fill:#e6af50;}</style></defs><polygon class="cls-1" points="276.36 49.09 276.36 97.06 322.3 97.06 322.3 91.39 284.29 91.39 284.29 49.09 276.36 49.09"/><path class="cls-1" d="M409.12,82.42c-.25,5.9-3,8.58-9.38,9.2L383.63,92c-17.38,0-19.57-2.06-19.57-18.37,0-11.64.61-15.35,4.69-17.51,2.87-1.54,6.28-1.87,19.15-1.87,14.4,0,20,0,20.69,8.28H416c-.22-4.69-1.2-8.08-2.83-9.84-2.77-3.09-8.8-4-25.83-4-16,0-21.24.59-25.3,2.87-4.62,2.57-5.89,7-5.89,20.69,0,7.37.38,13.18,1,15.54.88,3.5,2.5,5.84,4.94,7.17,4.25,2.31,7.94,2.65,28.21,2.65,16.16,0,20.86-.83,23.93-4.25,1.65-1.78,2.34-4.85,2.42-10.86Z"/><path class="cls-1" d="M546.65,82.42c-.23,5.89-3,8.58-9.39,9.2L521.18,92c-17.39,0-19.58-2.06-19.58-18.37,0-11.65.61-15.37,4.67-17.51,2.87-1.54,6.28-1.87,19.15-1.87,14.4,0,20,0,20.72,8.28h7.39c-.2-4.66-1.18-8.06-2.84-9.84-2.77-3.09-8.8-4-25.83-4-16.05,0-21.24.59-25.27,2.87-4.65,2.58-5.92,7-5.92,20.69,0,7.16.39,13.12,1,15.55.91,3.49,2.52,5.83,4.94,7.16,4.25,2.31,7.94,2.65,28.21,2.65,16.16,0,20.86-.83,23.93-4.25,1.65-1.78,2.34-4.85,2.42-10.86Z"/><rect class="cls-1" x="782.15" y="49.09" width="7.93" height="47.96"/><polygon class="cls-1" points="1004.06 49.09 1004.06 97.06 1050 97.06 1050 91.39 1011.97 91.39 1011.97 49.09 1004.06 49.09"/><polygon class="cls-2" points="111.18 49.09 111.18 63.79 156.64 63.79 156.64 69.32 105.66 69.32 105.66 43.55 156.64 43.55 156.64 49.09 111.18 49.09"/><polygon class="cls-2" points="176.06 100.9 176.06 106.42 76.73 106.42 68.56 98.25 68.56 25 74.08 25 74.08 100.9 176.06 100.9"/><polygon class="cls-2" points="176.06 119.48 176.06 125 66.16 124.96 50.06 108.84 50 25 55.53 25 55.53 104.47 70.55 119.48 176.06 119.48"/><polygon class="cls-2" points="170.53 48.92 170.53 30.53 92.63 30.53 92.63 82.35 170.53 82.35 170.53 63.79 176.06 63.79 176.06 87.87 87.11 87.87 87.11 25 176.06 25 176.06 48.92 170.53 48.92"/><polygon class="cls-1" points="628.27 49.09 614.33 49.09 586.87 97.06 595.64 97.06 621.18 51.3 646.88 97.06 655.29 97.06 628.27 49.09"/><polygon class="cls-1" points="943.76 49.09 929.83 49.09 902.36 97.06 911.13 97.06 936.67 51.3 962.38 97.06 970.79 97.06 943.76 49.09"/><path class="cls-1" d="M738.53,50h0c-2.14-.71-4.79-.93-11.32-.93H688.57v48h7.85V54.65h29.36c9.13,0,12.06,2.63,12.06,10.81,0,8.53-4.24,10.09-12.59,10.09H711.34v5.59H728.6c7.55,0,11.2-.75,13.47-2.77,2.67-2.27,3.75-6.19,3.75-13.55C745.82,54.16,743.37,51.47,738.53,50Z"/><polygon class="cls-1" points="881.79 49.09 824.92 49.09 824.92 54.73 849.43 54.73 849.43 97.06 857.44 97.06 857.44 54.73 881.79 54.73 881.79 49.09"/></svg>